<mxfile host="app.diagrams.net" modified="2023-06-10T14:39:20.527Z" agent="Mozilla/5.0 (Windows NT 10.0; Win64; x64) AppleWebKit/537.36 (KHTML, like Gecko) Chrome/114.0.0.0 Safari/537.36" etag="YK-bTOJ01wBmYFvug_ll" version="21.3.7" type="device">
  <diagram name="Page-1" id="Il607j-oeIk0SsUgGrti">
    <mxGraphModel dx="1050" dy="581" grid="1" gridSize="10" guides="1" tooltips="1" connect="1" arrows="1" fold="1" page="1" pageScale="1" pageWidth="850" pageHeight="1100" math="0" shadow="0">
      <root>
        <mxCell id="0" />
        <mxCell id="1" parent="0" />
        <mxCell id="gL1uyrFeZrW7IvUfme2c-1" value="Train" style="rounded=0;whiteSpace=wrap;html=1;fillColor=#CCFFFF;labelBackgroundColor=none;fontStyle=1;labelBorderColor=none;" vertex="1" parent="1">
          <mxGeometry x="120" y="120" width="320" height="40" as="geometry" />
        </mxCell>
        <mxCell id="gL1uyrFeZrW7IvUfme2c-3" value="Test" style="rounded=0;whiteSpace=wrap;html=1;fillColor=#FFE6CC;fontStyle=1" vertex="1" parent="1">
          <mxGeometry x="440" y="120" width="80" height="40" as="geometry" />
        </mxCell>
        <mxCell id="gL1uyrFeZrW7IvUfme2c-4" value="" style="endArrow=none;html=1;rounded=0;entryX=0.75;entryY=0;entryDx=0;entryDy=0;exitX=0.75;exitY=1;exitDx=0;exitDy=0;opacity=50;" edge="1" parent="1" source="gL1uyrFeZrW7IvUfme2c-1" target="gL1uyrFeZrW7IvUfme2c-1">
          <mxGeometry width="50" height="50" relative="1" as="geometry">
            <mxPoint x="400" y="330" as="sourcePoint" />
            <mxPoint x="450" y="280" as="targetPoint" />
          </mxGeometry>
        </mxCell>
        <mxCell id="gL1uyrFeZrW7IvUfme2c-5" value="" style="endArrow=none;html=1;rounded=0;entryX=0.5;entryY=0;entryDx=0;entryDy=0;exitX=0.5;exitY=1;exitDx=0;exitDy=0;labelBackgroundColor=default;opacity=50;" edge="1" parent="1" source="gL1uyrFeZrW7IvUfme2c-1" target="gL1uyrFeZrW7IvUfme2c-1">
          <mxGeometry width="50" height="50" relative="1" as="geometry">
            <mxPoint x="370" y="170" as="sourcePoint" />
            <mxPoint x="370" y="130" as="targetPoint" />
          </mxGeometry>
        </mxCell>
        <mxCell id="gL1uyrFeZrW7IvUfme2c-6" value="" style="endArrow=none;html=1;rounded=0;entryX=0.25;entryY=0;entryDx=0;entryDy=0;exitX=0.25;exitY=1;exitDx=0;exitDy=0;opacity=50;" edge="1" parent="1" source="gL1uyrFeZrW7IvUfme2c-1" target="gL1uyrFeZrW7IvUfme2c-1">
          <mxGeometry width="50" height="50" relative="1" as="geometry">
            <mxPoint x="290" y="170" as="sourcePoint" />
            <mxPoint x="290" y="130" as="targetPoint" />
          </mxGeometry>
        </mxCell>
        <mxCell id="gL1uyrFeZrW7IvUfme2c-8" value="Train" style="rounded=0;whiteSpace=wrap;html=1;fillColor=#CCFFFF;labelBackgroundColor=none;fontStyle=1;labelBorderColor=none;" vertex="1" parent="1">
          <mxGeometry x="120" y="180" width="240" height="40" as="geometry" />
        </mxCell>
        <mxCell id="gL1uyrFeZrW7IvUfme2c-9" value="Test" style="rounded=0;whiteSpace=wrap;html=1;fillColor=#FFE6CC;fontStyle=1" vertex="1" parent="1">
          <mxGeometry x="360" y="180" width="80" height="40" as="geometry" />
        </mxCell>
        <mxCell id="gL1uyrFeZrW7IvUfme2c-13" value="" style="endArrow=none;html=1;rounded=0;entryX=0.25;entryY=0;entryDx=0;entryDy=0;exitX=0.25;exitY=1;exitDx=0;exitDy=0;opacity=50;" edge="1" parent="1">
          <mxGeometry width="50" height="50" relative="1" as="geometry">
            <mxPoint x="200" y="221" as="sourcePoint" />
            <mxPoint x="200" y="181" as="targetPoint" />
          </mxGeometry>
        </mxCell>
        <mxCell id="gL1uyrFeZrW7IvUfme2c-14" value="" style="endArrow=none;html=1;rounded=0;entryX=0.25;entryY=0;entryDx=0;entryDy=0;exitX=0.25;exitY=1;exitDx=0;exitDy=0;opacity=50;" edge="1" parent="1">
          <mxGeometry width="50" height="50" relative="1" as="geometry">
            <mxPoint x="279.5" y="220" as="sourcePoint" />
            <mxPoint x="279.5" y="180" as="targetPoint" />
          </mxGeometry>
        </mxCell>
        <mxCell id="gL1uyrFeZrW7IvUfme2c-15" value="Train" style="rounded=0;whiteSpace=wrap;html=1;fillColor=#CCFFFF;fontStyle=1" vertex="1" parent="1">
          <mxGeometry x="440" y="180" width="80" height="40" as="geometry" />
        </mxCell>
        <mxCell id="gL1uyrFeZrW7IvUfme2c-16" value="Train" style="rounded=0;whiteSpace=wrap;html=1;fillColor=#CCFFFF;labelBackgroundColor=none;fontStyle=1;labelBorderColor=none;" vertex="1" parent="1">
          <mxGeometry x="120" y="240" width="160" height="40" as="geometry" />
        </mxCell>
        <mxCell id="gL1uyrFeZrW7IvUfme2c-17" value="Test" style="rounded=0;whiteSpace=wrap;html=1;fillColor=#FFE6CC;fontStyle=1" vertex="1" parent="1">
          <mxGeometry x="280" y="240" width="80" height="40" as="geometry" />
        </mxCell>
        <mxCell id="gL1uyrFeZrW7IvUfme2c-18" value="" style="endArrow=none;html=1;rounded=0;entryX=0.25;entryY=0;entryDx=0;entryDy=0;exitX=0.25;exitY=1;exitDx=0;exitDy=0;opacity=50;" edge="1" parent="1">
          <mxGeometry width="50" height="50" relative="1" as="geometry">
            <mxPoint x="200" y="281" as="sourcePoint" />
            <mxPoint x="200" y="241" as="targetPoint" />
          </mxGeometry>
        </mxCell>
        <mxCell id="gL1uyrFeZrW7IvUfme2c-21" value="Train" style="rounded=0;whiteSpace=wrap;html=1;fillColor=#CCFFFF;labelBackgroundColor=none;fontStyle=1;labelBorderColor=none;" vertex="1" parent="1">
          <mxGeometry x="360" y="240" width="160" height="40" as="geometry" />
        </mxCell>
        <mxCell id="gL1uyrFeZrW7IvUfme2c-22" value="Train" style="rounded=0;whiteSpace=wrap;html=1;fillColor=#CCFFFF;labelBackgroundColor=none;fontStyle=1;labelBorderColor=none;" vertex="1" parent="1">
          <mxGeometry x="280" y="300" width="240" height="40" as="geometry" />
        </mxCell>
        <mxCell id="gL1uyrFeZrW7IvUfme2c-23" value="Test" style="rounded=0;whiteSpace=wrap;html=1;fillColor=#FFE6CC;fontStyle=1" vertex="1" parent="1">
          <mxGeometry x="200" y="300" width="80" height="40" as="geometry" />
        </mxCell>
        <mxCell id="gL1uyrFeZrW7IvUfme2c-24" value="" style="endArrow=none;html=1;rounded=0;entryX=0.25;entryY=0;entryDx=0;entryDy=0;exitX=0.25;exitY=1;exitDx=0;exitDy=0;opacity=50;" edge="1" parent="1">
          <mxGeometry width="50" height="50" relative="1" as="geometry">
            <mxPoint x="360" y="341" as="sourcePoint" />
            <mxPoint x="360" y="301" as="targetPoint" />
          </mxGeometry>
        </mxCell>
        <mxCell id="gL1uyrFeZrW7IvUfme2c-25" value="" style="endArrow=none;html=1;rounded=0;entryX=0.25;entryY=0;entryDx=0;entryDy=0;exitX=0.25;exitY=1;exitDx=0;exitDy=0;opacity=50;" edge="1" parent="1">
          <mxGeometry width="50" height="50" relative="1" as="geometry">
            <mxPoint x="439.5" y="340" as="sourcePoint" />
            <mxPoint x="439.5" y="300" as="targetPoint" />
          </mxGeometry>
        </mxCell>
        <mxCell id="gL1uyrFeZrW7IvUfme2c-26" value="Train" style="rounded=0;whiteSpace=wrap;html=1;fillColor=#CCFFFF;fontStyle=1" vertex="1" parent="1">
          <mxGeometry x="120" y="300" width="80" height="40" as="geometry" />
        </mxCell>
        <mxCell id="gL1uyrFeZrW7IvUfme2c-27" value="Train" style="rounded=0;whiteSpace=wrap;html=1;fillColor=#CCFFFF;labelBackgroundColor=none;fontStyle=1;labelBorderColor=none;" vertex="1" parent="1">
          <mxGeometry x="200" y="360" width="320" height="40" as="geometry" />
        </mxCell>
        <mxCell id="gL1uyrFeZrW7IvUfme2c-28" value="Test" style="rounded=0;whiteSpace=wrap;html=1;fillColor=#FFE6CC;fontStyle=1" vertex="1" parent="1">
          <mxGeometry x="120" y="360" width="80" height="40" as="geometry" />
        </mxCell>
        <mxCell id="gL1uyrFeZrW7IvUfme2c-29" value="" style="endArrow=none;html=1;rounded=0;entryX=0.75;entryY=0;entryDx=0;entryDy=0;exitX=0.75;exitY=1;exitDx=0;exitDy=0;opacity=50;" edge="1" parent="1" source="gL1uyrFeZrW7IvUfme2c-27" target="gL1uyrFeZrW7IvUfme2c-27">
          <mxGeometry width="50" height="50" relative="1" as="geometry">
            <mxPoint x="480" y="570" as="sourcePoint" />
            <mxPoint x="530" y="520" as="targetPoint" />
          </mxGeometry>
        </mxCell>
        <mxCell id="gL1uyrFeZrW7IvUfme2c-30" value="" style="endArrow=none;html=1;rounded=0;entryX=0.5;entryY=0;entryDx=0;entryDy=0;exitX=0.5;exitY=1;exitDx=0;exitDy=0;labelBackgroundColor=default;opacity=50;" edge="1" parent="1" source="gL1uyrFeZrW7IvUfme2c-27" target="gL1uyrFeZrW7IvUfme2c-27">
          <mxGeometry width="50" height="50" relative="1" as="geometry">
            <mxPoint x="450" y="410" as="sourcePoint" />
            <mxPoint x="450" y="370" as="targetPoint" />
          </mxGeometry>
        </mxCell>
        <mxCell id="gL1uyrFeZrW7IvUfme2c-31" value="" style="endArrow=none;html=1;rounded=0;entryX=0.25;entryY=0;entryDx=0;entryDy=0;exitX=0.25;exitY=1;exitDx=0;exitDy=0;opacity=50;" edge="1" parent="1" source="gL1uyrFeZrW7IvUfme2c-27" target="gL1uyrFeZrW7IvUfme2c-27">
          <mxGeometry width="50" height="50" relative="1" as="geometry">
            <mxPoint x="370" y="410" as="sourcePoint" />
            <mxPoint x="370" y="370" as="targetPoint" />
          </mxGeometry>
        </mxCell>
        <mxCell id="gL1uyrFeZrW7IvUfme2c-32" value="" style="shape=curlyBracket;whiteSpace=wrap;html=1;rounded=1;flipH=1;labelPosition=right;verticalLabelPosition=middle;align=left;verticalAlign=middle;size=0.5;" vertex="1" parent="1">
          <mxGeometry x="536" y="120" width="30" height="280" as="geometry" />
        </mxCell>
        <mxCell id="gL1uyrFeZrW7IvUfme2c-39" value="Test" style="rounded=0;whiteSpace=wrap;html=1;fillColor=#FFE6CC;labelBackgroundColor=none;fontStyle=1;labelBorderColor=none;" vertex="1" parent="1">
          <mxGeometry x="680" y="200" width="400" height="40" as="geometry" />
        </mxCell>
        <mxCell id="gL1uyrFeZrW7IvUfme2c-40" value="" style="endArrow=none;html=1;rounded=0;opacity=50;" edge="1" parent="1">
          <mxGeometry width="50" height="50" relative="1" as="geometry">
            <mxPoint x="760" y="201" as="sourcePoint" />
            <mxPoint x="760" y="241" as="targetPoint" />
          </mxGeometry>
        </mxCell>
        <mxCell id="gL1uyrFeZrW7IvUfme2c-41" value="" style="endArrow=none;html=1;rounded=0;opacity=50;" edge="1" parent="1">
          <mxGeometry width="50" height="50" relative="1" as="geometry">
            <mxPoint x="840" y="200" as="sourcePoint" />
            <mxPoint x="840" y="240" as="targetPoint" />
          </mxGeometry>
        </mxCell>
        <mxCell id="gL1uyrFeZrW7IvUfme2c-42" value="" style="endArrow=none;html=1;rounded=0;opacity=50;" edge="1" parent="1">
          <mxGeometry width="50" height="50" relative="1" as="geometry">
            <mxPoint x="921" y="200" as="sourcePoint" />
            <mxPoint x="921" y="240" as="targetPoint" />
          </mxGeometry>
        </mxCell>
        <mxCell id="gL1uyrFeZrW7IvUfme2c-43" value="" style="endArrow=none;html=1;rounded=0;opacity=50;" edge="1" parent="1">
          <mxGeometry width="50" height="50" relative="1" as="geometry">
            <mxPoint x="1000" y="201" as="sourcePoint" />
            <mxPoint x="1000" y="241" as="targetPoint" />
          </mxGeometry>
        </mxCell>
        <mxCell id="gL1uyrFeZrW7IvUfme2c-45" value="Train" style="rounded=0;whiteSpace=wrap;html=1;fillColor=#CCFFFF;labelBackgroundColor=none;fontStyle=1;labelBorderColor=none;" vertex="1" parent="1">
          <mxGeometry x="680" y="280" width="400" height="40" as="geometry" />
        </mxCell>
        <mxCell id="gL1uyrFeZrW7IvUfme2c-46" value="" style="endArrow=none;html=1;rounded=0;opacity=50;" edge="1" parent="1">
          <mxGeometry width="50" height="50" relative="1" as="geometry">
            <mxPoint x="760" y="281" as="sourcePoint" />
            <mxPoint x="760" y="321" as="targetPoint" />
          </mxGeometry>
        </mxCell>
        <mxCell id="gL1uyrFeZrW7IvUfme2c-47" value="" style="endArrow=none;html=1;rounded=0;opacity=50;" edge="1" parent="1">
          <mxGeometry width="50" height="50" relative="1" as="geometry">
            <mxPoint x="840" y="280" as="sourcePoint" />
            <mxPoint x="840" y="320" as="targetPoint" />
          </mxGeometry>
        </mxCell>
        <mxCell id="gL1uyrFeZrW7IvUfme2c-48" value="" style="endArrow=none;html=1;rounded=0;opacity=50;" edge="1" parent="1">
          <mxGeometry width="50" height="50" relative="1" as="geometry">
            <mxPoint x="921" y="280" as="sourcePoint" />
            <mxPoint x="921" y="320" as="targetPoint" />
          </mxGeometry>
        </mxCell>
        <mxCell id="gL1uyrFeZrW7IvUfme2c-49" value="" style="endArrow=none;html=1;rounded=0;opacity=50;" edge="1" parent="1">
          <mxGeometry width="50" height="50" relative="1" as="geometry">
            <mxPoint x="1000" y="281" as="sourcePoint" />
            <mxPoint x="1000" y="321" as="targetPoint" />
          </mxGeometry>
        </mxCell>
        <mxCell id="gL1uyrFeZrW7IvUfme2c-50" value="Fold 1" style="text;html=1;strokeColor=none;fillColor=none;align=center;verticalAlign=middle;whiteSpace=wrap;rounded=0;" vertex="1" parent="1">
          <mxGeometry x="51" y="125" width="60" height="30" as="geometry" />
        </mxCell>
        <mxCell id="gL1uyrFeZrW7IvUfme2c-51" value="Fold 2" style="text;html=1;strokeColor=none;fillColor=none;align=center;verticalAlign=middle;whiteSpace=wrap;rounded=0;" vertex="1" parent="1">
          <mxGeometry x="51" y="185" width="60" height="30" as="geometry" />
        </mxCell>
        <mxCell id="gL1uyrFeZrW7IvUfme2c-52" value="Fold 3" style="text;html=1;strokeColor=none;fillColor=none;align=center;verticalAlign=middle;whiteSpace=wrap;rounded=0;" vertex="1" parent="1">
          <mxGeometry x="51" y="245" width="60" height="30" as="geometry" />
        </mxCell>
        <mxCell id="gL1uyrFeZrW7IvUfme2c-53" value="Fold 4" style="text;html=1;strokeColor=none;fillColor=none;align=center;verticalAlign=middle;whiteSpace=wrap;rounded=0;" vertex="1" parent="1">
          <mxGeometry x="51" y="305" width="60" height="30" as="geometry" />
        </mxCell>
        <mxCell id="gL1uyrFeZrW7IvUfme2c-54" value="Fold 5" style="text;html=1;strokeColor=none;fillColor=none;align=center;verticalAlign=middle;whiteSpace=wrap;rounded=0;" vertex="1" parent="1">
          <mxGeometry x="51" y="365" width="60" height="30" as="geometry" />
        </mxCell>
        <mxCell id="gL1uyrFeZrW7IvUfme2c-55" value="Evaluation results reported on" style="text;html=1;strokeColor=none;fillColor=none;align=center;verticalAlign=middle;whiteSpace=wrap;rounded=0;" vertex="1" parent="1">
          <mxGeometry x="570" y="205" width="100" height="30" as="geometry" />
        </mxCell>
        <mxCell id="gL1uyrFeZrW7IvUfme2c-56" value="Final model trained on" style="text;html=1;strokeColor=none;fillColor=none;align=center;verticalAlign=middle;whiteSpace=wrap;rounded=0;" vertex="1" parent="1">
          <mxGeometry x="570" y="285" width="100" height="30" as="geometry" />
        </mxCell>
      </root>
    </mxGraphModel>
  </diagram>
</mxfile>
